<svg width="60" height="50" viewBox="0 0 60 50" xmlns="http://www.w3.org/2000/svg"><title>integrations-logos-basecamp</title><g fill="none" fill-rule="evenodd"><path d="M29.953 0C13.928 0 1.373 20.236.186 37.328c5.028 8.663 17.155 11.92 29.767 11.92 12.61 0 24.74-3.257 29.765-11.92C58.53 20.236 45.978 0 29.953 0" fill="#B6DEFF"/><path d="M55.53 33.257s-3.538-7.595-7.136-12.026c-3.6-4.432-7.996-9.26-10.596-9.26-2.597 0-9.86 12.764-13.192 12.764-3.332 0-5.064-5.785-9.16-5.785-4.1 0-10.61 13.95-10.61 13.95l-.442 2.366s2.262 9.955 25.93 9.955c23.666 0 25.558-9.79 25.558-9.79l-.35-2.173" fill="#6C6"/><path d="M24.977 30.18c-3.675 0-5.56-3.6-6.58-5.82-.92-2.002-1.08-5.163-3.686-5.25.258-.102.504-.16.735-.16 4.097 0 5.83 5.784 9.16 5.784 3.333 0 10.596-12.763 13.193-12.763.49 0 1.04.173 1.64.478-.443-.058-1.01-.018-1.447.417-.84.834-8.463 17.316-13.013 17.316" fill="#17AD49"/></g></svg>