<svg width="449" height="175" viewBox="0 0 449 175" xmlns="http://www.w3.org/2000/svg" xmlns:xlink="http://www.w3.org/1999/xlink"><title>integrations-logo-jira</title><defs><path id="a" d="M0 .834h448.443V174.94H0V.834z"/></defs><g fill="none" fill-rule="evenodd"><path d="M223.858 42.86h-19.333a3.15 3.15 0 0 0-3.15 3.148v117.626a3.15 3.15 0 0 0 3.15 3.15h19.333a3.15 3.15 0 0 0 3.15-3.15V46.008a3.15 3.15 0 0 0-3.15-3.15" fill="#264970"/><mask id="b" fill="#fff"><use xlink:href="#a"/></mask><path d="M272.98 65.76h24.495c12.668 0 15.21 4.986 15.21 13.03v12.013c0 10.012-3.836 13.39-15.21 13.39H272.98V65.76zm74.793 95.825l-26.917-38.828c11.59-4.808 17.464-14.884 17.464-29.952V76.97c0-23.592-12.317-34.11-39.936-34.11h-47.888a3.15 3.15 0 0 0-3.15 3.148v117.626a3.15 3.15 0 0 0 3.15 3.15h19.333a3.15 3.15 0 0 0 3.15-3.15v-36.89h19.784l26.908 38.69a3.153 3.153 0 0 0 2.586 1.35h23.123a3.15 3.15 0 0 0 2.393-5.2z" fill="#264970" mask="url(#b)"/><path d="M411.21 45.062a3.148 3.148 0 0 0-3.003-2.203h-29.395c-1.375 0-2.59.89-3.003 2.202l-37.087 117.625a3.148 3.148 0 0 0 3.004 4.098h20.236a3.15 3.15 0 0 0 3.02-2.258l25.54-86.51s.668-2.16 2.98-2.16c2.352 0 2.925 2.246 2.925 2.248l11.85 41.024h-16.28a3.15 3.15 0 0 0-3.032 2.295l-4.568 16.24c-.267.95-.074 1.97.522 2.754a3.147 3.147 0 0 0 2.51 1.247h27.472l7.137 22.904a3.15 3.15 0 0 0 3.007 2.215h20.246a3.15 3.15 0 0 0 3.004-4.098L411.21 45.062M178.582 42.86h-19.568a3.007 3.007 0 0 0-3.008 3v92.04c0 11.568-8.814 15.37-14.78 15.674-.803.04-1.74.546-2.253 1.297-.516.755-.66 1.7-.392 2.573l4.76 15.476c.387 1.266 1.752 2.08 3.973 2.08 18.723 0 34.27-14.7 34.27-34.404V45.86a2.998 2.998 0 0 0-3-3" fill="#264970" mask="url(#b)"/><path d="M27.05 10.77c-6.01 0-10.88 4.862-10.88 10.89 0 6.01 4.87 10.89 10.88 10.89 6.018 0 10.88-4.88 10.88-10.89a10.87 10.87 0 0 0-10.88-10.89M98.53 10.77c-6.014 0-10.876 4.862-10.876 10.89 0 6.01 4.862 10.89 10.877 10.89 6 0 10.88-4.88 10.88-10.89 0-6.028-4.88-10.882-10.88-10.89" fill="#264970"/><g fill="#264970"><path d="M62.79.834c-6.01 0-10.88 4.86-10.88 10.89 0 6.012 4.87 10.892 10.88 10.892 6.017 0 10.88-4.88 10.88-10.892 0-6.03-4.863-10.89-10.88-10.89M124.252 41.113a3.42 3.42 0 0 0-2.07-.7c-.41 0-.825.076-1.217.227-7.367 2.817-14.848 4.956-21.676 6.547-1.394.325-2.52 1.36-2.985 2.6C91.33 63.416 78.627 76.392 65.3 89.983c-.536.508-1.285 1.178-2.505 1.178-1.217 0-1.96-.65-2.504-1.178-13.325-13.59-26.028-26.522-31.005-40.15-.467-1.24-1.592-2.275-2.982-2.6-6.832-1.592-14.332-3.797-21.69-6.614a3.43 3.43 0 0 0-1.22-.225 3.36 3.36 0 0 0-2.055.693 3.403 3.403 0 0 0-1.322 3.01c1.128 11.332 5.606 22.41 13.687 34.02C21.3 89.028 31.207 99.13 40.786 108.9c17.65 18.004 34.323 35.007 35.786 54.724a3.41 3.41 0 0 0 3.4 3.157h20.737a3.413 3.413 0 0 0 3.405-3.578c-.652-13.182-5.613-26.383-15.166-40.353a137.95 137.95 0 0 0-6.39-8.57c-.91-1.135-.53-2.546.168-3.258l2.077-2.12c9.58-9.77 19.486-19.873 27.084-30.787 8.08-11.61 12.555-22.623 13.684-33.953a3.498 3.498 0 0 0-1.322-3.05"/></g><path d="M40.543 124.238c-.49-.513-1.21-1.037-2.42-1.037-1.55 0-2.467 1.07-2.814 1.6-8.723 13.274-13.228 25.8-13.85 38.39-.046.928.296 1.85.938 2.528a3.452 3.452 0 0 0 2.48 1.063H45.58c1.78 0 3.28-1.393 3.412-3.17.45-6.066 2.34-12.148 5.78-18.54 1.19-2.21.265-4.287-.42-5.175-3.413-4.437-7.592-9.17-13.81-15.657M62.814 51.272c6.5 0 10.268-.39 11.592-.39 1.604 0 3.137 1.314 3.137 3.154 0 .537-.127.92-.253 1.26C76.428 57.6 72.5 65.89 65.187 73c-.82.8-1.75.948-2.39.948h-.008c-.64 0-1.57-.15-2.39-.947-7.312-7.11-11.24-15.4-12.1-17.704-.128-.34-.255-.723-.255-1.26 0-1.84 1.535-3.154 3.14-3.154 1.323 0 5.09.39 11.586.39h.044" fill="#264970"/></g></svg>